<?xml version="1.0" encoding="UTF-8" standalone="no"?>
<!DOCTYPE svg PUBLIC "-//W3C//DTD SVG 1.1//EN"
 "http://www.w3.org/Graphics/SVG/1.1/DTD/svg11.dtd">
<!-- Generated by graphviz version 2.47.0 (20210316.0004)
 -->
<!-- Title: dependencies Pages: 1 -->
<svg width="669pt" height="349pt"
 viewBox="0.00 0.00 669.00 349.00" xmlns="http://www.w3.org/2000/svg" xmlns:xlink="http://www.w3.org/1999/xlink">
<g id="graph0" class="graph" transform="scale(1 1) rotate(0) translate(4 345)">
<title>dependencies</title>
<polygon fill="white" stroke="transparent" points="-4,4 -4,-345 665,-345 665,4 -4,4"/>
<text text-anchor="start" x="309.51" y="-42.4" font-family="sans-serif" font-weight="bold" font-size="14.00">Legend</text>
<polygon fill="#ffffb3" stroke="transparent" points="96.5,-10 96.5,-30 116.5,-30 116.5,-10 96.5,-10"/>
<text text-anchor="start" x="120.13" y="-15.4" font-family="sans-serif" font-size="14.00"> &#160;Declarations</text>
<polygon fill="#8dd3c7" stroke="transparent" points="209.5,-10 209.5,-30 229.5,-30 229.5,-10 209.5,-10"/>
<text text-anchor="start" x="233.23" y="-15.4" font-family="sans-serif" font-size="14.00"> &#160;Module</text>
<polygon fill="#80b1d3" stroke="transparent" points="295.5,-10 295.5,-30 315.5,-30 315.5,-10 295.5,-10"/>
<text text-anchor="start" x="319.28" y="-15.4" font-family="sans-serif" font-size="14.00"> &#160;Bootstrap</text>
<polygon fill="#fdb462" stroke="transparent" points="392.5,-10 392.5,-30 412.5,-30 412.5,-10 392.5,-10"/>
<text text-anchor="start" x="416.17" y="-15.4" font-family="sans-serif" font-size="14.00"> &#160;Providers</text>
<polygon fill="#fb8072" stroke="transparent" points="488.5,-10 488.5,-30 508.5,-30 508.5,-10 488.5,-10"/>
<text text-anchor="start" x="512.23" y="-15.4" font-family="sans-serif" font-size="14.00"> &#160;Exports</text>
<g id="clust1" class="cluster">
<title>cluster_NgxChessgroundModule</title>
<polygon fill="none" stroke="black" stroke-dasharray="1,5" points="8,-70 8,-333 653,-333 653,-70 8,-70"/>
</g>
<g id="clust4" class="cluster">
<title>cluster_NgxChessgroundModule_NgxChessgroundComponent_providers</title>
<polygon fill="none" stroke="black" points="415,-78 415,-195 645,-195 645,-78 415,-78"/>
</g>
<g id="clust7" class="cluster">
<title>cluster_NgxChessgroundModule_exports</title>
<polygon fill="none" stroke="black" points="16,-273 16,-325 614,-325 614,-273 16,-273"/>
</g>
<g id="clust2" class="cluster">
<title>cluster_NgxChessgroundModule_declarations</title>
<polygon fill="none" stroke="black" points="16,-143 16,-195 407,-195 407,-143 16,-143"/>
</g>
<!-- ChessTableComponent -->
<g id="node1" class="node">
<title>ChessTableComponent</title>
<polygon fill="#ffffb3" stroke="black" points="399.15,-187 252.85,-187 252.85,-151 399.15,-151 399.15,-187"/>
<text text-anchor="middle" x="326" y="-164.8" font-family="Times,serif" font-size="14.00">ChessTableComponent</text>
</g>
<!-- NgxChessgroundModule -->
<g id="node4" class="node">
<title>NgxChessgroundModule</title>
<polygon fill="#8dd3c7" stroke="black" points="414.26,-252 411.26,-256 390.26,-256 387.26,-252 257.74,-252 257.74,-216 414.26,-216 414.26,-252"/>
<text text-anchor="middle" x="336" y="-229.8" font-family="Times,serif" font-size="14.00">NgxChessgroundModule</text>
</g>
<!-- ChessTableComponent&#45;&gt;NgxChessgroundModule -->
<g id="edge1" class="edge">
<title>ChessTableComponent&#45;&gt;NgxChessgroundModule</title>
<path fill="none" stroke="black" d="M328.47,-187.11C328.47,-187.11 328.47,-205.99 328.47,-205.99"/>
<polygon fill="black" stroke="black" points="324.97,-205.99 328.47,-215.99 331.97,-205.99 324.97,-205.99"/>
</g>
<!-- NgxChessgroundComponent -->
<g id="node2" class="node">
<title>NgxChessgroundComponent</title>
<polygon fill="#ffffb3" stroke="black" points="610.04,-187 431.96,-187 431.96,-151 610.04,-151 610.04,-187"/>
<text text-anchor="middle" x="521" y="-164.8" font-family="Times,serif" font-size="14.00">NgxChessgroundComponent</text>
</g>
<!-- NgxChessgroundComponent&#45;&gt;NgxChessgroundModule -->
<g id="edge2" class="edge">
<title>NgxChessgroundComponent&#45;&gt;NgxChessgroundModule</title>
<path fill="none" stroke="black" d="M431.9,-169C417.31,-169 406.85,-169 406.85,-169 406.85,-169 406.85,-205.89 406.85,-205.89"/>
<polygon fill="black" stroke="black" points="403.35,-205.89 406.85,-215.89 410.35,-205.89 403.35,-205.89"/>
</g>
<!-- NgxChessgroundTableComponent -->
<g id="node3" class="node">
<title>NgxChessgroundTableComponent</title>
<polygon fill="#ffffb3" stroke="black" points="234.41,-187 23.59,-187 23.59,-151 234.41,-151 234.41,-187"/>
<text text-anchor="middle" x="129" y="-164.8" font-family="Times,serif" font-size="14.00">NgxChessgroundTableComponent</text>
</g>
<!-- NgxChessgroundTableComponent&#45;&gt;NgxChessgroundModule -->
<g id="edge4" class="edge">
<title>NgxChessgroundTableComponent&#45;&gt;NgxChessgroundModule</title>
<path fill="none" stroke="black" d="M94.1,-187.02C94.1,-204.37 94.1,-228 94.1,-228 94.1,-228 247.46,-228 247.46,-228"/>
<polygon fill="black" stroke="black" points="247.46,-231.5 257.46,-228 247.46,-224.5 247.46,-231.5"/>
</g>
<!-- ChessTableComponent  -->
<g id="node6" class="node">
<title>ChessTableComponent </title>
<polygon fill="#fb8072" stroke="black" points="606.15,-317 455.85,-317 455.85,-281 606.15,-281 606.15,-317"/>
<text text-anchor="middle" x="531" y="-294.8" font-family="Times,serif" font-size="14.00">ChessTableComponent </text>
</g>
<!-- NgxChessgroundModule&#45;&gt;ChessTableComponent  -->
<g id="edge5" class="edge">
<title>NgxChessgroundModule&#45;&gt;ChessTableComponent </title>
<path fill="none" stroke="black" stroke-dasharray="5,2" d="M414.47,-234C468.66,-234 531,-234 531,-234 531,-234 531,-270.89 531,-270.89"/>
<polygon fill="black" stroke="black" points="527.5,-270.89 531,-280.89 534.5,-270.89 527.5,-270.89"/>
</g>
<!-- NgxChessgroundComponent  -->
<g id="node7" class="node">
<title>NgxChessgroundComponent </title>
<polygon fill="#fb8072" stroke="black" points="438.04,-317 255.96,-317 255.96,-281 438.04,-281 438.04,-317"/>
<text text-anchor="middle" x="347" y="-294.8" font-family="Times,serif" font-size="14.00">NgxChessgroundComponent </text>
</g>
<!-- NgxChessgroundModule&#45;&gt;NgxChessgroundComponent  -->
<g id="edge6" class="edge">
<title>NgxChessgroundModule&#45;&gt;NgxChessgroundComponent </title>
<path fill="none" stroke="black" stroke-dasharray="5,2" d="M336,-252.11C336,-252.11 336,-270.99 336,-270.99"/>
<polygon fill="black" stroke="black" points="332.5,-270.99 336,-280.99 339.5,-270.99 332.5,-270.99"/>
</g>
<!-- NgxChessgroundTableComponent  -->
<g id="node8" class="node">
<title>NgxChessgroundTableComponent </title>
<polygon fill="#fb8072" stroke="black" points="237.91,-317 24.09,-317 24.09,-281 237.91,-281 237.91,-317"/>
<text text-anchor="middle" x="131" y="-294.8" font-family="Times,serif" font-size="14.00">NgxChessgroundTableComponent </text>
</g>
<!-- NgxChessgroundModule&#45;&gt;NgxChessgroundTableComponent  -->
<g id="edge7" class="edge">
<title>NgxChessgroundModule&#45;&gt;NgxChessgroundTableComponent </title>
<path fill="none" stroke="black" stroke-dasharray="5,2" d="M257.62,-240C212.3,-240 164.15,-240 164.15,-240 164.15,-240 164.15,-270.98 164.15,-270.98"/>
<polygon fill="black" stroke="black" points="160.65,-270.98 164.15,-280.98 167.65,-270.98 160.65,-270.98"/>
</g>
<!-- NgxChessgroundService -->
<g id="node5" class="node">
<title>NgxChessgroundService</title>
<ellipse fill="#fdb462" stroke="black" cx="530" cy="-104" rx="107.09" ry="18"/>
<text text-anchor="middle" x="530" y="-99.8" font-family="Times,serif" font-size="14.00">NgxChessgroundService</text>
</g>
<!-- NgxChessgroundService&#45;&gt;NgxChessgroundComponent -->
<g id="edge3" class="edge">
<title>NgxChessgroundService&#45;&gt;NgxChessgroundComponent</title>
<path fill="none" stroke="black" d="M521,-122.11C521,-122.11 521,-140.99 521,-140.99"/>
<polygon fill="black" stroke="black" points="517.5,-140.99 521,-150.99 524.5,-140.99 517.5,-140.99"/>
</g>
</g>
</svg>
