<?xml version="1.0" encoding="UTF-8" standalone="no"?>
<!DOCTYPE svg PUBLIC "-//W3C//DTD SVG 1.1//EN"
 "http://www.w3.org/Graphics/SVG/1.1/DTD/svg11.dtd">
<!-- Generated by graphviz version 2.47.0 (20210316.0004)
 -->
<!-- Title: dependencies Pages: 1 -->
<svg width="638pt" height="284pt"
 viewBox="0.00 0.00 638.00 284.00" xmlns="http://www.w3.org/2000/svg" xmlns:xlink="http://www.w3.org/1999/xlink">
<g id="graph0" class="graph" transform="scale(1 1) rotate(0) translate(4 280)">
<title>dependencies</title>
<polygon fill="white" stroke="transparent" points="-4,4 -4,-280 634,-280 634,4 -4,4"/>
<text text-anchor="start" x="294.01" y="-42.4" font-family="sans-serif" font-weight="bold" font-size="14.00">Legend</text>
<polygon fill="#ffffb3" stroke="transparent" points="81,-10 81,-30 101,-30 101,-10 81,-10"/>
<text text-anchor="start" x="104.63" y="-15.4" font-family="sans-serif" font-size="14.00"> &#160;Declarations</text>
<polygon fill="#8dd3c7" stroke="transparent" points="194,-10 194,-30 214,-30 214,-10 194,-10"/>
<text text-anchor="start" x="217.73" y="-15.4" font-family="sans-serif" font-size="14.00"> &#160;Module</text>
<polygon fill="#80b1d3" stroke="transparent" points="280,-10 280,-30 300,-30 300,-10 280,-10"/>
<text text-anchor="start" x="303.78" y="-15.4" font-family="sans-serif" font-size="14.00"> &#160;Bootstrap</text>
<polygon fill="#fdb462" stroke="transparent" points="377,-10 377,-30 397,-30 397,-10 377,-10"/>
<text text-anchor="start" x="400.67" y="-15.4" font-family="sans-serif" font-size="14.00"> &#160;Providers</text>
<polygon fill="#fb8072" stroke="transparent" points="473,-10 473,-30 493,-30 493,-10 473,-10"/>
<text text-anchor="start" x="496.73" y="-15.4" font-family="sans-serif" font-size="14.00"> &#160;Exports</text>
<g id="clust1" class="cluster">
<title>cluster_NgxChessgroundModule</title>
<polygon fill="none" stroke="black" stroke-dasharray="1,5" points="8,-70 8,-268 622,-268 622,-70 8,-70"/>
</g>
<g id="clust2" class="cluster">
<title>cluster_NgxChessgroundModule_declarations</title>
<polygon fill="none" stroke="black" points="22,-78 22,-130 609,-130 609,-78 22,-78"/>
</g>
<g id="clust7" class="cluster">
<title>cluster_NgxChessgroundModule_exports</title>
<polygon fill="none" stroke="black" points="16,-208 16,-260 614,-260 614,-208 16,-208"/>
</g>
<!-- ChessTableComponent -->
<g id="node1" class="node">
<title>ChessTableComponent</title>
<polygon fill="#ffffb3" stroke="black" points="601.15,-122 454.85,-122 454.85,-86 601.15,-86 601.15,-122"/>
<text text-anchor="middle" x="528" y="-99.8" font-family="Times,serif" font-size="14.00">ChessTableComponent</text>
</g>
<!-- NgxChessgroundModule -->
<g id="node4" class="node">
<title>NgxChessgroundModule</title>
<polygon fill="#8dd3c7" stroke="black" points="425.26,-187 422.26,-191 401.26,-191 398.26,-187 268.74,-187 268.74,-151 425.26,-151 425.26,-187"/>
<text text-anchor="middle" x="347" y="-164.8" font-family="Times,serif" font-size="14.00">NgxChessgroundModule</text>
</g>
<!-- ChessTableComponent&#45;&gt;NgxChessgroundModule -->
<g id="edge1" class="edge">
<title>ChessTableComponent&#45;&gt;NgxChessgroundModule</title>
<path fill="none" stroke="black" d="M552.86,-122.02C552.86,-139.37 552.86,-163 552.86,-163 552.86,-163 435.41,-163 435.41,-163"/>
<polygon fill="black" stroke="black" points="435.41,-159.5 425.41,-163 435.41,-166.5 435.41,-159.5"/>
</g>
<!-- NgxChessgroundComponent -->
<g id="node2" class="node">
<title>NgxChessgroundComponent</title>
<polygon fill="#ffffb3" stroke="black" points="436.04,-122 257.96,-122 257.96,-86 436.04,-86 436.04,-122"/>
<text text-anchor="middle" x="347" y="-99.8" font-family="Times,serif" font-size="14.00">NgxChessgroundComponent</text>
</g>
<!-- NgxChessgroundComponent&#45;&gt;NgxChessgroundModule -->
<g id="edge2" class="edge">
<title>NgxChessgroundComponent&#45;&gt;NgxChessgroundModule</title>
<path fill="none" stroke="black" d="M347,-122.11C347,-122.11 347,-140.99 347,-140.99"/>
<polygon fill="black" stroke="black" points="343.5,-140.99 347,-150.99 350.5,-140.99 343.5,-140.99"/>
</g>
<!-- NgxChessgroundTableComponent -->
<g id="node3" class="node">
<title>NgxChessgroundTableComponent</title>
<polygon fill="#ffffb3" stroke="black" points="240.41,-122 29.59,-122 29.59,-86 240.41,-86 240.41,-122"/>
<text text-anchor="middle" x="135" y="-99.8" font-family="Times,serif" font-size="14.00">NgxChessgroundTableComponent</text>
</g>
<!-- NgxChessgroundTableComponent&#45;&gt;NgxChessgroundModule -->
<g id="edge3" class="edge">
<title>NgxChessgroundTableComponent&#45;&gt;NgxChessgroundModule</title>
<path fill="none" stroke="black" d="M168.57,-122.02C168.57,-139.37 168.57,-163 168.57,-163 168.57,-163 258.74,-163 258.74,-163"/>
<polygon fill="black" stroke="black" points="258.74,-166.5 268.74,-163 258.74,-159.5 258.74,-166.5"/>
</g>
<!-- ChessTableComponent  -->
<g id="node5" class="node">
<title>ChessTableComponent </title>
<polygon fill="#fb8072" stroke="black" points="606.15,-252 455.85,-252 455.85,-216 606.15,-216 606.15,-252"/>
<text text-anchor="middle" x="531" y="-229.8" font-family="Times,serif" font-size="14.00">ChessTableComponent </text>
</g>
<!-- NgxChessgroundModule&#45;&gt;ChessTableComponent  -->
<g id="edge4" class="edge">
<title>NgxChessgroundModule&#45;&gt;ChessTableComponent </title>
<path fill="none" stroke="black" stroke-dasharray="5,2" d="M425.7,-175C465.04,-175 504.39,-175 504.39,-175 504.39,-175 504.39,-205.98 504.39,-205.98"/>
<polygon fill="black" stroke="black" points="500.89,-205.98 504.39,-215.98 507.89,-205.98 500.89,-205.98"/>
</g>
<!-- NgxChessgroundComponent  -->
<g id="node6" class="node">
<title>NgxChessgroundComponent </title>
<polygon fill="#fb8072" stroke="black" points="438.04,-252 255.96,-252 255.96,-216 438.04,-216 438.04,-252"/>
<text text-anchor="middle" x="347" y="-229.8" font-family="Times,serif" font-size="14.00">NgxChessgroundComponent </text>
</g>
<!-- NgxChessgroundModule&#45;&gt;NgxChessgroundComponent  -->
<g id="edge5" class="edge">
<title>NgxChessgroundModule&#45;&gt;NgxChessgroundComponent </title>
<path fill="none" stroke="black" stroke-dasharray="5,2" d="M347,-187.11C347,-187.11 347,-205.99 347,-205.99"/>
<polygon fill="black" stroke="black" points="343.5,-205.99 347,-215.99 350.5,-205.99 343.5,-205.99"/>
</g>
<!-- NgxChessgroundTableComponent  -->
<g id="node7" class="node">
<title>NgxChessgroundTableComponent </title>
<polygon fill="#fb8072" stroke="black" points="237.91,-252 24.09,-252 24.09,-216 237.91,-216 237.91,-252"/>
<text text-anchor="middle" x="131" y="-229.8" font-family="Times,serif" font-size="14.00">NgxChessgroundTableComponent </text>
</g>
<!-- NgxChessgroundModule&#45;&gt;NgxChessgroundTableComponent  -->
<g id="edge6" class="edge">
<title>NgxChessgroundModule&#45;&gt;NgxChessgroundTableComponent </title>
<path fill="none" stroke="black" stroke-dasharray="5,2" d="M268.59,-175C195.99,-175 99.18,-175 99.18,-175 99.18,-175 99.18,-205.98 99.18,-205.98"/>
<polygon fill="black" stroke="black" points="95.68,-205.98 99.18,-215.98 102.68,-205.98 95.68,-205.98"/>
</g>
</g>
</svg>
