<?xml version="1.0" encoding="UTF-8" standalone="no"?>
<!DOCTYPE svg PUBLIC "-//W3C//DTD SVG 1.1//EN"
 "http://www.w3.org/Graphics/SVG/1.1/DTD/svg11.dtd">
<!-- Generated by graphviz version 2.47.0 (20210316.0004)
 -->
<!-- Title: dependencies Pages: 1 -->
<svg width="638pt" height="349pt"
 viewBox="0.00 0.00 638.00 349.00" xmlns="http://www.w3.org/2000/svg" xmlns:xlink="http://www.w3.org/1999/xlink">
<g id="graph0" class="graph" transform="scale(1 1) rotate(0) translate(4 345)">
<title>dependencies</title>
<polygon fill="white" stroke="transparent" points="-4,4 -4,-345 634,-345 634,4 -4,4"/>
<text text-anchor="start" x="294.01" y="-42.4" font-family="sans-serif" font-weight="bold" font-size="14.00">Legend</text>
<polygon fill="#ffffb3" stroke="transparent" points="81,-10 81,-30 101,-30 101,-10 81,-10"/>
<text text-anchor="start" x="104.63" y="-15.4" font-family="sans-serif" font-size="14.00"> &#160;Declarations</text>
<polygon fill="#8dd3c7" stroke="transparent" points="194,-10 194,-30 214,-30 214,-10 194,-10"/>
<text text-anchor="start" x="217.73" y="-15.4" font-family="sans-serif" font-size="14.00"> &#160;Module</text>
<polygon fill="#80b1d3" stroke="transparent" points="280,-10 280,-30 300,-30 300,-10 280,-10"/>
<text text-anchor="start" x="303.78" y="-15.4" font-family="sans-serif" font-size="14.00"> &#160;Bootstrap</text>
<polygon fill="#fdb462" stroke="transparent" points="377,-10 377,-30 397,-30 397,-10 377,-10"/>
<text text-anchor="start" x="400.67" y="-15.4" font-family="sans-serif" font-size="14.00"> &#160;Providers</text>
<polygon fill="#fb8072" stroke="transparent" points="473,-10 473,-30 493,-30 493,-10 473,-10"/>
<text text-anchor="start" x="496.73" y="-15.4" font-family="sans-serif" font-size="14.00"> &#160;Exports</text>
<g id="clust1" class="cluster">
<title>cluster_NgxChessgroundModule</title>
<polygon fill="none" stroke="black" stroke-dasharray="1,5" points="8,-70 8,-333 622,-333 622,-70 8,-70"/>
</g>
<g id="clust2" class="cluster">
<title>cluster_NgxChessgroundModule_declarations</title>
<polygon fill="none" stroke="black" points="22,-143 22,-195 609,-195 609,-143 22,-143"/>
</g>
<g id="clust4" class="cluster">
<title>cluster_NgxChessgroundModule_NgxChessgroundComponent_providers</title>
<polygon fill="none" stroke="black" points="232,-78 232,-130 462,-130 462,-78 232,-78"/>
</g>
<g id="clust7" class="cluster">
<title>cluster_NgxChessgroundModule_exports</title>
<polygon fill="none" stroke="black" points="16,-273 16,-325 614,-325 614,-273 16,-273"/>
</g>
<!-- ChessTableComponent -->
<g id="node1" class="node">
<title>ChessTableComponent</title>
<polygon fill="#ffffb3" stroke="black" points="601.15,-187 454.85,-187 454.85,-151 601.15,-151 601.15,-187"/>
<text text-anchor="middle" x="528" y="-164.8" font-family="Times,serif" font-size="14.00">ChessTableComponent</text>
</g>
<!-- NgxChessgroundModule -->
<g id="node4" class="node">
<title>NgxChessgroundModule</title>
<polygon fill="#8dd3c7" stroke="black" points="425.26,-252 422.26,-256 401.26,-256 398.26,-252 268.74,-252 268.74,-216 425.26,-216 425.26,-252"/>
<text text-anchor="middle" x="347" y="-229.8" font-family="Times,serif" font-size="14.00">NgxChessgroundModule</text>
</g>
<!-- ChessTableComponent&#45;&gt;NgxChessgroundModule -->
<g id="edge1" class="edge">
<title>ChessTableComponent&#45;&gt;NgxChessgroundModule</title>
<path fill="none" stroke="black" d="M552.86,-187.02C552.86,-204.37 552.86,-228 552.86,-228 552.86,-228 435.41,-228 435.41,-228"/>
<polygon fill="black" stroke="black" points="435.41,-224.5 425.41,-228 435.41,-231.5 435.41,-224.5"/>
</g>
<!-- NgxChessgroundComponent -->
<g id="node2" class="node">
<title>NgxChessgroundComponent</title>
<polygon fill="#ffffb3" stroke="black" points="436.04,-187 257.96,-187 257.96,-151 436.04,-151 436.04,-187"/>
<text text-anchor="middle" x="347" y="-164.8" font-family="Times,serif" font-size="14.00">NgxChessgroundComponent</text>
</g>
<!-- NgxChessgroundComponent&#45;&gt;NgxChessgroundModule -->
<g id="edge2" class="edge">
<title>NgxChessgroundComponent&#45;&gt;NgxChessgroundModule</title>
<path fill="none" stroke="black" d="M347,-187.11C347,-187.11 347,-205.99 347,-205.99"/>
<polygon fill="black" stroke="black" points="343.5,-205.99 347,-215.99 350.5,-205.99 343.5,-205.99"/>
</g>
<!-- NgxChessgroundTableComponent -->
<g id="node3" class="node">
<title>NgxChessgroundTableComponent</title>
<polygon fill="#ffffb3" stroke="black" points="240.41,-187 29.59,-187 29.59,-151 240.41,-151 240.41,-187"/>
<text text-anchor="middle" x="135" y="-164.8" font-family="Times,serif" font-size="14.00">NgxChessgroundTableComponent</text>
</g>
<!-- NgxChessgroundTableComponent&#45;&gt;NgxChessgroundModule -->
<g id="edge4" class="edge">
<title>NgxChessgroundTableComponent&#45;&gt;NgxChessgroundModule</title>
<path fill="none" stroke="black" d="M168.57,-187.02C168.57,-204.37 168.57,-228 168.57,-228 168.57,-228 258.74,-228 258.74,-228"/>
<polygon fill="black" stroke="black" points="258.74,-231.5 268.74,-228 258.74,-224.5 258.74,-231.5"/>
</g>
<!-- ChessTableComponent  -->
<g id="node6" class="node">
<title>ChessTableComponent </title>
<polygon fill="#fb8072" stroke="black" points="606.15,-317 455.85,-317 455.85,-281 606.15,-281 606.15,-317"/>
<text text-anchor="middle" x="531" y="-294.8" font-family="Times,serif" font-size="14.00">ChessTableComponent </text>
</g>
<!-- NgxChessgroundModule&#45;&gt;ChessTableComponent  -->
<g id="edge5" class="edge">
<title>NgxChessgroundModule&#45;&gt;ChessTableComponent </title>
<path fill="none" stroke="black" stroke-dasharray="5,2" d="M425.7,-240C465.04,-240 504.39,-240 504.39,-240 504.39,-240 504.39,-270.98 504.39,-270.98"/>
<polygon fill="black" stroke="black" points="500.89,-270.98 504.39,-280.98 507.89,-270.98 500.89,-270.98"/>
</g>
<!-- NgxChessgroundComponent  -->
<g id="node7" class="node">
<title>NgxChessgroundComponent </title>
<polygon fill="#fb8072" stroke="black" points="438.04,-317 255.96,-317 255.96,-281 438.04,-281 438.04,-317"/>
<text text-anchor="middle" x="347" y="-294.8" font-family="Times,serif" font-size="14.00">NgxChessgroundComponent </text>
</g>
<!-- NgxChessgroundModule&#45;&gt;NgxChessgroundComponent  -->
<g id="edge6" class="edge">
<title>NgxChessgroundModule&#45;&gt;NgxChessgroundComponent </title>
<path fill="none" stroke="black" stroke-dasharray="5,2" d="M347,-252.11C347,-252.11 347,-270.99 347,-270.99"/>
<polygon fill="black" stroke="black" points="343.5,-270.99 347,-280.99 350.5,-270.99 343.5,-270.99"/>
</g>
<!-- NgxChessgroundTableComponent  -->
<g id="node8" class="node">
<title>NgxChessgroundTableComponent </title>
<polygon fill="#fb8072" stroke="black" points="237.91,-317 24.09,-317 24.09,-281 237.91,-281 237.91,-317"/>
<text text-anchor="middle" x="131" y="-294.8" font-family="Times,serif" font-size="14.00">NgxChessgroundTableComponent </text>
</g>
<!-- NgxChessgroundModule&#45;&gt;NgxChessgroundTableComponent  -->
<g id="edge7" class="edge">
<title>NgxChessgroundModule&#45;&gt;NgxChessgroundTableComponent </title>
<path fill="none" stroke="black" stroke-dasharray="5,2" d="M268.59,-240C195.99,-240 99.18,-240 99.18,-240 99.18,-240 99.18,-270.98 99.18,-270.98"/>
<polygon fill="black" stroke="black" points="95.68,-270.98 99.18,-280.98 102.68,-270.98 95.68,-270.98"/>
</g>
<!-- NgxChessgroundService -->
<g id="node5" class="node">
<title>NgxChessgroundService</title>
<ellipse fill="#fdb462" stroke="black" cx="347" cy="-104" rx="107.09" ry="18"/>
<text text-anchor="middle" x="347" y="-99.8" font-family="Times,serif" font-size="14.00">NgxChessgroundService</text>
</g>
<!-- NgxChessgroundService&#45;&gt;NgxChessgroundComponent -->
<g id="edge3" class="edge">
<title>NgxChessgroundService&#45;&gt;NgxChessgroundComponent</title>
<path fill="none" stroke="black" d="M347,-122.11C347,-122.11 347,-140.99 347,-140.99"/>
<polygon fill="black" stroke="black" points="343.5,-140.99 347,-150.99 350.5,-140.99 343.5,-140.99"/>
</g>
</g>
</svg>
